<?xml version="1.0" encoding="UTF-8"?>
<svg width="36px" height="97px" viewBox="0 0 36 97" version="1.1" xmlns="http://www.w3.org/2000/svg" xmlns:xlink="http://www.w3.org/1999/xlink">
    <!-- Generator: Sketch 46.2 (44496) - http://www.bohemiancoding.com/sketch -->
    <title>logo_color</title>
    <desc>Created with Sketch.</desc>
    <defs>
        <polygon id="path-1" points="0 1.61441121e-14 0 60 24.888 60 24.888 0 1.190779e-20 0"></polygon>
        <polygon id="path-3" points="0 73 24.888 73 24.888 56 0 56"></polygon>
    </defs>
    <g id="Vision-I-docu" stroke="none" stroke-width="1" fill="none" fill-rule="evenodd" opacity="0.900000036">
        <g id="Shell-I" transform="translate(-77.000000, -69.000000)">
            <g id="logo_color" transform="translate(66.000000, 58.000000)">
                <g id="Homelogo" transform="translate(11.000000, 11.000000)">
                    <g id="Page-1-Copy">
                        <mask id="mask-2" fill="white">
                            <use xlink:href="#path-1"></use>
                        </mask>
                        <g id="Clip-2"></g>
                        <path d="M13.481,21.191247 C13.9615697,21.1276978 14.4429023,21.0635492 14.923472,21 C15.4520987,22.6157074 14.9387282,22.8651079 14.3757751,23.0527578 C14.5901244,23.986211 15.1240908,23.7218225 15.5443986,23.8872902 C15.6191539,24.6780576 15.2667361,24.9100719 15.4757458,25.8723022 C15.1553659,25.9148681 14.8342233,25.9574341 14.5138435,26 C14.1698166,24.3998801 13.8257897,22.7955635 13.481,21.191247 L13.481,21.191247 Z M24.888,55.9505822 C24.776706,38.2806021 24.8259097,28.973019 23.117254,17.6205623 C22.9151676,15.8119852 21.9469098,16.4794093 21.547423,15.5932974 C22.016615,15.1854587 21.1696092,9.36608918 20.1351608,8.68503266 C20.9206621,11.6978131 20.0953293,12.1192843 19.2940125,12.5708606 C18.4563788,12.0596421 18.4991391,7.47344504 17.6041011,7.22692417 C17.8126309,9.52627095 18.5723588,12.7191139 17.4488753,12.8724794 C16.4466436,7.76370349 16.0471567,3.62340244 15.9663222,0 C14.4222645,4.98778756 17.4892926,20.7259301 12.708337,18.334564 C14.1012692,31.2865663 12.0698609,38.7151377 12.0370585,49.3655212 C12.147181,45.8278898 11.4348994,40.9650667 10.3969365,35.5802329 C9.63603706,30.4544164 11.530378,44.1829026 9.98104844,44.0817949 C7.20279895,37.6319227 7.76044042,23.5024141 5.96040655,16.6287986 C5.83915467,21.2394206 6.91870639,27.7841522 6.81092695,32.4191991 C4.6102347,30.6498154 4.58270408,19.2263561 3.37662866,17.0514059 C3.50080933,18.9798353 3.13763946,19.0775348 2.43004397,18.1448452 C2.66434712,14.6827606 1.43074108,11.3922181 1.58128085,8.91224084 C-0.620582916,13.9960239 3.86515071,32.9701789 0.169604426,33.5063902 C0.194792014,41.5898892 -0.160177244,50.5861971 0.0893556003,60 L24.888,55.9505822 Z" id="Fill-1" fill="#96444C" mask="url(#mask-2)"></path>
                        <mask id="mask-4" fill="white">
                            <use xlink:href="#path-3"></use>
                        </mask>
                        <g id="Clip-5"></g>
                        <polygon id="Fill-4" fill="#96444C" mask="url(#mask-4)" points="24.888 69.0651214 0.114111451 73 0 59.9343267 24.7744737 56"></polygon>
                    </g>
                    <g id="Page-1-Copy-2" style="mix-blend-mode: screen;" transform="translate(11.000000, 45.000000)" fill="#5769C3">
                        <polygon id="Fill-1" points="0.568557123 3.59084241 0 50 3.57944288 49.4097182 4.148 3"></polygon>
                        <polygon id="Fill-2" points="13.9990637 34.4136674 10.37 35 10.8889363 2.58633257 14.518 2"></polygon>
                        <polygon id="Fill-3" points="24.7460947 0 20.74 0.590966489 20.8819053 52 24.888 51.4090335"></polygon>
                    </g>
                </g>
            </g>
        </g>
    </g>
</svg>